<?xml version="1.0" standalone="no"?><!DOCTYPE svg PUBLIC "-//W3C//DTD SVG 1.1//EN" "http://www.w3.org/Graphics/SVG/1.1/DTD/svg11.dtd"><svg t="1673093636105" class="icon" viewBox="0 0 1024 1024" version="1.1" xmlns="http://www.w3.org/2000/svg" p-id="3223" xmlns:xlink="http://www.w3.org/1999/xlink" width="200" height="200"><path d="M895.994 820.152c0 23.562-19.124 42.624-42.688 42.624H170.688c-23.578 0-42.67-19.062-42.67-42.624V350.808c0-23.562 19.092-42.656 42.67-42.656h682.618c23.562 0 42.688 19.092 42.688 42.656v469.344z" fill="#FFD2A6" p-id="3224"></path><path d="M128.018 734.782h767.976v127.996H128.018z" fill="#965353" p-id="3225"></path><path d="M252.374 734.782l-124.356 124.37v3.626h56.686l127.996-127.996zM365.73 862.778l127.996-127.996h-60.344l-127.996 127.996zM546.756 862.778l127.996-127.996h-60.376l-127.978 127.996zM667.44 862.778h60.308l127.996-127.996h-60.308z" fill="#723939" p-id="3226"></path><path d="M176.204 494.302c26.204-9.28 67.624-10.406 94.294-2.5l62.42 18.436c18.562 5.5 51.138 5.5 69.716 0l62.404-18.436c26.344-7.812 67.592-7.812 93.936 0l62.402 18.436c18.562 5.5 51.156 5.5 69.716 0l62.404-18.436c26.688-7.906 68.124-6.78 94.31 2.5l48.186 17.124v-160.62c0-23.562-19.124-42.656-42.688-42.656H170.688c-23.578 0-42.67 19.092-42.67 42.656v160.62l48.186-17.124z" fill="#EC87C0" p-id="3227"></path><path d="M582.754 313.964c-44.124 35.312-128.778 53.562-158.542 16.344-29.764-37.216 6.64-115.778 50.764-151.088 44.124-35.296 79.28-13.936 109.028 23.28 29.78 37.186 42.872 76.184-1.25 111.464z" fill="#ED5564" p-id="3228"></path><path d="M610.658 235.81c-9.188 7.344-22.624 5.844-29.966-3.344-7.376-9.186-5.876-22.624 3.312-30 9.216-7.344 22.624-5.844 29.998 3.344a21.324 21.324 0 0 1-3.344 30z" fill="#A0D468" p-id="3229"></path><path d="M584.004 202.468c-9.188 7.376-22.624 5.876-29.966-3.312-7.344-9.218-5.876-22.624 3.344-29.984 9.186-7.358 22.624-5.874 29.966 3.328 7.342 9.188 5.872 22.624-3.344 29.968z" fill="#A0D468" p-id="3230"></path><path d="M1017.74 826.402a21.144 21.144 0 0 0-15.062-6.25H21.348a21.16 21.16 0 0 0-15.078 6.25c-8.328 8.312-8.328 21.812 0 30.124a21.188 21.188 0 0 0 15.092 6.25h981.282a21.22 21.22 0 0 0 15.094-6.25c8.314-8.312 8.314-21.812 0.002-30.124z" fill="#434A54" p-id="3231"></path><path d="M198.25 293.06c-8.328 8.342-8.328 21.842 0 30.186 8.344 8.312 21.842 8.312 30.17 0a21.36 21.36 0 0 0 0-30.186c-8.328-8.312-21.826-8.312-30.17 0zM240.936 378.4c-8.342 8.312-8.342 21.844 0 30.156a21.294 21.294 0 0 0 30.156 0c8.342-8.312 8.342-21.844 0-30.156a21.294 21.294 0 0 0-30.156 0zM368.932 442.398c-8.342 8.312-8.342 21.844 0 30.156 8.328 8.344 21.828 8.344 30.172 0 8.328-8.312 8.328-21.844 0-30.156-8.344-8.344-21.844-8.344-30.172 0zM497.24 378.4c-8.328 8.312-8.328 21.844 0 30.156 8.328 8.344 21.844 8.344 30.172 0 8.328-8.312 8.328-21.844 0-30.156-8.328-8.344-21.844-8.344-30.172 0zM624.94 442.398c-8.344 8.312-8.344 21.844 0 30.156 8.312 8.344 21.812 8.344 30.156 0 8.344-8.312 8.344-21.844 0-30.156-8.344-8.344-21.844-8.344-30.156 0zM752.936 378.4c-8.344 8.312-8.344 21.844 0 30.156 8.312 8.344 21.812 8.344 30.156 0 8.344-8.312 8.344-21.844 0-30.156-8.344-8.344-21.844-8.344-30.156 0zM399.088 323.246a21.36 21.36 0 0 0 0-30.186c-8.328-8.312-21.844-8.312-30.172 0-8.328 8.342-8.328 21.842 0 30.186 8.328 8.312 21.844 8.312 30.172 0zM710.25 293.06c-8.312 8.342-8.312 21.842 0 30.186 8.312 8.312 21.842 8.312 30.186 0 8.312-8.344 8.312-21.842 0-30.186-8.344-8.312-21.874-8.312-30.186 0zM825.746 293.06c-8.312-8.312-21.81-8.312-30.154 0a21.33 21.33 0 0 0 0 30.186c8.344 8.312 21.842 8.312 30.154 0a21.33 21.33 0 0 0 0-30.186z" fill="#ED5564" p-id="3232"></path><path d="M362.682 585.472a21.09 21.09 0 0 0 6.25 15.062 21.256 21.256 0 0 0 30.172 0 21.206 21.206 0 0 0 6.234-15.062v-85.326h-42.654v85.326zM234.686 542.802a21.34 21.34 0 0 0 6.234 15.108c8.344 8.312 21.844 8.312 30.172 0a21.3 21.3 0 0 0 6.25-15.108v-85.312h-42.654v85.312zM490.678 606.786a21.23 21.23 0 0 0 6.25 15.124c8.328 8.312 21.828 8.312 30.172 0a21.35 21.35 0 0 0 6.234-15.124v-141.638h-42.656v141.638zM618.69 564.16c0 5.438 2.062 10.876 6.25 15.062 8.312 8.312 21.812 8.312 30.156 0a21.298 21.298 0 0 0 6.218-15.062v-61.67h-42.624v61.67zM789.31 474.492h-42.624v68.312c0 5.484 2.062 10.92 6.25 15.108 8.312 8.312 21.812 8.312 30.124 0a21.224 21.224 0 0 0 6.25-15.108v-68.312z" fill="#EC87C0" p-id="3233"></path></svg>